<?xml version="1.0" standalone="no"?>
<!DOCTYPE svg PUBLIC "-//W3C//DTD SVG 20010904//EN"
 "http://www.w3.org/TR/2001/REC-SVG-20010904/DTD/svg10.dtd">
<svg version="1.0" xmlns="http://www.w3.org/2000/svg"
 width="100.000000pt" height="100.000000pt" viewBox="0 0 100.000000 100.000000"
 preserveAspectRatio="xMidYMid meet">
<metadata>
Created by potrace 1.14, written by Peter Selinger 2001-2017
</metadata>
<g transform="translate(0.000000,100.000000) scale(0.100000,-0.100000)"
fill="#000000" stroke="none">
<path d="M378 954 c-32 -7 -77 -23 -100 -35 -44 -22 -137 -93 -151 -116 -5 -7
-16 -21 -25 -31 -24 -23 -69 -120 -81 -173 -15 -61 -13 -145 3 -204 17 -62 48
-135 58 -135 5 0 8 -6 8 -13 0 -17 117 -133 130 -130 6 2 10 -1 10 -6 0 -11
89 -50 154 -67 59 -16 221 -13 254 5 12 6 22 9 22 6 0 -12 140 70 177 104 151
140 193 352 107 537 -22 47 -33 63 -83 119 -111 125 -307 182 -483 139z"/>
</g>
</svg>
