<svg width="1000" height="1000" xmlns="http://www.w3.org/2000/svg">
  <ellipse cx="495" cy="400" rx="60" ry="20" fill="gray" opacity="0.3" />
  <polygon
    points="505,210 550,190 560,235"
    stroke-width="4"
    stroke="orange"
    fill="black"
  />
  <polygon
    points="420,240 420,205 455,210"
    stroke-width="4"
    stroke="orange"
    fill="black"
  />

  <circle cx="500" cy="300" r="100" fill="orange" />
  <circle cx="540" cy="280" r="35" fill="white" />
  <circle cx="490" cy="280" r="35" fill="white" />
  <circle cx="540" cy="280" r="7" fill="black" />
  <circle cx="500" cy="280" r="7" fill="black" />
  <circle cx="515" cy="315" r="12" fill="black" />
  <ellipse cx="500" cy="350" rx="16" ry="8" fill="red" />
  <ellipse
    cx="360"
    cy="320"
    rx="60"
    ry="20"
    fill="orange"
    transform="translate (100,-100) rotate (15)"
  />
  <polygon
    points="316,288 345,284 337,307"
    stroke-width="4"
    stroke="white"
    fill="white"
  />

  <ellipse cx="775" cy="400" rx="60" ry="20" fill="gray" opacity="0.3" />
  <circle cx="770" cy="300" r="100" fill="yellow" />
  <circle cx="730" cy="280" r="35" fill="white" />
  <circle cx="780" cy="280" r="35" fill="white" />
  <circle cx="725" cy="280" r="7" fill="black" />
  <circle cx="775" cy="280" r="7" fill="black" />
  <ellipse cx="755" cy="350" rx="8" ry="16" fill="red" />
</svg>
